# xmcd CD database file
#
# Track frame offsets:
#	187
#	32745
#	37955
#	55300
#	76337
#	92212
#	137470
#	150095
#	164057
#	189180
#	197672
#	203762
#	211990
#	234075
#	251632
#	259027
#	262620
#	272222
#	291552
#	294417
#
# Disc length: 4142 seconds
#
# Revision: 0
# Processed by: cddbd v1.5PL3 Copyright (c) Steve Scherf et al.
# Submitted via: CDex 1.50beta9
#
DISCID=13102c14
DTITLE=芸能山城組 - シルクロード幻唱
DYEAR=1994
DGENRE=Ethnic
TTITLE0=暁梁王（日本中世歌謡）
TTITLE1=先祖の神に祈る（台湾、高砂族）
TTITLE2=舟こぎ競争の唄（インド・ベンガル地方）
TTITLE3=糸を紡いでいた時（コルシカ島）
TTITLE4=老人・ディアンベゴ（グルジア民謡）
TTITLE5=アフィ讃（抄）（ラダック密教の声明）
TTITLE6=チャー（パキスタン、カラーシュ族）
TTITLE7=イントロイト〜マニト（シリア正教会）
TTITLE8=ジグル（トルコ、イスラム教神秘主義派メブレビ教団の祈祷）
TTITLE9=ディミャニンカの水鏡
TTITLE10=モリナニ、想いはままならず
TTITLE11=かめさんとはりねずみ
TTITLE12=夕暮れのヤナ
TTITLE13=陽は沈む
TTITLE14=ラーダよ
TTITLE15=花束によせて
TTITLE16=小鳥のたより
TTITLE17=カライ・モーメ（さあ行きましょう、娘さん）
TTITLE18=都からきたシタヤン
TTITLE19=お前は何の花
EXTD=YEAR: 1994
EXTT0=
EXTT1=
EXTT2=
EXTT3=
EXTT4=
EXTT5=
EXTT6=
EXTT7=
EXTT8=
EXTT9=
EXTT10=
EXTT11=
EXTT12=
EXTT13=
EXTT14=
EXTT15=
EXTT16=
EXTT17=
EXTT18=
EXTT19=
PLAYORDER=
